<?xml version="1.0" encoding="utf-8"?>
<!-- Generator: Adobe Illustrator 24.0.0, SVG Export Plug-In . SVG Version: 6.00 Build 0)  -->
<svg version="1.1" id="RB17_x5F_biggerbulls_x5F_sport_x5F_pant"
	 xmlns="http://www.w3.org/2000/svg" xmlns:xlink="http://www.w3.org/1999/xlink" x="0px" y="0px" viewBox="0 0 1028.57 646.54"
	 style="enable-background:new 0 0 1028.57 646.54;" xml:space="preserve">
<style type="text/css">
	.st0{fill:#FFC629;}
	.st1{fill:#FFFFFF;}
	.st2{fill-rule:evenodd;clip-rule:evenodd;fill:#CA003D;}
	.st3{fill:#CA003D;}
</style>
<circle class="st0" cx="524.61" cy="447.26" r="127.77"/>
<g id="Red_Bull_Kopie_Kopie">
</g>
<g id="Sun_Kopie_Kopie">
</g>
<g id="Outline_Kopie_Kopie">
</g>
<g id="Bulls_red_Kopie_Kopie">
</g>
<g>
	<path class="st1" d="M448.57,68.29l66.29,0l0,230.64h-77.73c-3.68,0.81-8.09,1.41-12.94,1.3c-27.23,0-51.35-11-64-41.84
		c-17.65,32.64-44.67,44.74-75.24,44.74c-10.79,0-19.6-1.3-26.98-4.2c0.27,0.16-190.62,0-190.62,0l0-221.38h92.63
		c35.72,0,69.57,27.55,69.57,71.88c0,19.06-9.1,34.05-9.1,34.05c12.8-24.87,39.4-36.69,65.38-36.55c26.76,0,54.9,8.08,71.23,49.2
		c12.43-30.87,29.82-47.97,69.13-47.66c8.96,0,13.13,1.26,22.38,3.6L448.57,68.29z"/>
</g>
<g>
	<path class="st1" d="M839.85,68.78h131.69l0,230.01H805.12c-11.65,4.64-24.34,7.12-33.49,7.12c-21.43,0.12-58.38-7.23-69.01-41.98
		c-7.73,18.63-40.33,35.01-55.64,34.86H540.3l0-219.35h86.57c35.08,0,68.67,17.31,68.51,62.34c0.07,3.22-0.55,7.91-1.66,12.66
		l146.13,0L839.85,68.78z"/>
</g>
<path class="st2" d="M749.78,234.49l0-69.84h-38.45l0,77.27c0,26.16,27.06,47.36,60.45,47.36c33.39,0,60.46-21.21,60.46-47.36
	l-0.02-77.27l-38.17,0l0,69.84c0,11.63-9.91,21.06-22.13,21.06C759.7,255.55,749.78,246.12,749.78,234.49z"/>
<rect x="919" y="81.62" class="st2" width="38.73" height="203.3"/>
<rect x="853.51" y="81.62" class="st2" width="38.74" height="203.3"/>
<path class="st2" d="M144.86,124.26l-21.05,0v160.66H82.59V90.94c0,0,69.85,0,70.83,0c32.24,0,58.38,25.65,58.38,57.29
	c0,26.94-18.94,49.53-44.47,55.65l56.92,81.03h-48.57l-41.17-63.52v-46.39l9.57,0c15.22,0,27.56-11.36,27.56-25.38
	C171.64,135.62,160.08,124.26,144.86,124.26z"/>
<path class="st3" d="M346,232.68c0.26-2.64,0.39-5.36,0.37-8.14c0.59-41.93-27.16-64.93-62.51-64.93
	c-35.35,0-64.01,29.01-64.01,64.8c0,35.79,28.67,64.85,64.02,64.85c26.99,0,48.04-12.22,58.89-31.34l-31.44-14.51
	c-4.01,8.66-13.37,14.75-24.28,14.73c-15.08-0.03-26.22-11.09-26.35-24.15c-0.01-0.91,0-1.31,0-1.31L346,232.68z M260.53,210.4
	c0-13.07,10.59-23.67,23.66-23.67c13.07,0,23.66,10.59,23.66,23.67H260.53z"/>
<path class="st3" d="M500.19,284.92l-0.05-203.3h-38.6l0,96.2c-10.28-10.18-23.97-16.34-38.92-16.34
	c-31.99,0-57.91,28.37-57.91,63.36c0,35,25.93,63.36,57.91,63.36c15.12,0,28.79-6.42,39.1-16.8v13.52H500.19z M433.6,255.2
	c-15.7,0-28.43-13.93-28.43-31.12c0-17.18,12.73-31.12,28.43-31.12c15.7,0,28.43,13.93,28.43,31.12
	C462.03,241.27,449.3,255.2,433.6,255.2z"/>
<path class="st3" d="M663.93,179.34c10.6-9.89,17.08-23.14,17.08-37.7c0-13.19-5.07-25.31-13.95-34.82
	c-9.24-10.17-25.6-15.88-47.7-15.88h-66.2v193.98h85.51c32.77-0.53,59.16-25.28,59.16-55.63
	C697.82,207.21,690.04,191.46,663.93,179.34z M631.51,251.24h-37.05V124.26h25.84c11.35,0,20.55,10.39,20.55,21.74
	c0,11.35-9.2,20.55-20.55,20.55h-13.46v34.87h24.67c13.76,0,24.15,11.1,24.15,24.86C655.17,240.5,646.45,250.31,631.51,251.24z"/>
<g>
	<path class="st1" d="M859.16,532.83l-0.02-0.05c-0.15-0.32-0.36-0.78-0.46-1.02c-0.13-0.68-0.23-1.47-0.34-2.31l-0.02-0.12
		c-0.25-2.01-0.52-4.09-1.38-6.11c-1.35-3.14-4.39-5.47-7.78-6.14c-0.26-1.39-0.85-2.42-1.21-2.94c-2.12-3.07-5.33-5.2-7.7-6.78
		c-0.66-0.44-1.4-0.93-1.68-1.17l-0.65-0.5c-1.56-1.25-3.45-1.9-5.46-1.9c-3.32,0-6.87,2.08-9.02,4.8
		c-0.37-0.97-0.98-3.23-1.33-4.51c-0.48-1.76-0.93-3.42-1.4-4.71l-0.07-0.18c-0.06-0.15-0.12-0.32-0.21-0.55
		c-0.88-2.36-2.93-7.87-9.1-8.9c-1.68-0.27-3.33-0.34-4.81-0.4c-2.99-0.13-4.15-0.59-4.55-0.83c0.08-0.27,0.23-0.69,0.5-1.35
		c0.55-1.35,0.95-2.52,1.26-3.75c1.26-4.27,2.14-10.48,1.13-15.92c1.44,0.21,3.05,0.36,4.66,0.36c5.07,0,10.38-1.09,14.97-3.07
		l0.25-0.12c9.06-4.4,18-14.49,17.53-27.1l-0.02-0.36c-1.04-10.91-7.12-21.22-18.51-31.41c2.94-0.79,6.13-1.78,9.01-3.78
		c8.24-5.54,11.8-15.45,9.77-27.21l-0.18-0.79c-1.31-6.03-5.75-6.49-7.08-6.49c-1.76,0-3.49,0.69-4.83,1.93
		c-0.27,0.25-0.55,0.52-0.86,0.8c-0.69,0.66-1.47,1.4-2.11,1.77c-1.77,1.04-4.33,1.58-7.05,2.15c-2.05,0.43-4.37,0.92-6.63,1.69
		c-10.22,3.52-16.67,9.03-19.18,16.39c-1.52,4.46-0.85,9.85,1.83,14.79l0.21,0.36c3.13,4.95,7.52,9.16,11.41,12.88
		c5.51,5.28,10.71,10.26,11.77,16.26c0.18,1.09,0.52,3.1-3.12,5.85c-1.44,0.81-3.44,1.25-5.66,1.25c-3.24,0-6.89-0.92-9.75-2.45
		l-0.16-0.08c-4.49-2.25-9-5.26-13.43-8.22c-7.1-4.75-14.44-9.65-22.97-12.44c-3.94-1.73-8.11-2.57-11.8-3.32
		c-4.68-0.95-9.1-1.84-12.23-4.3l-0.44-0.31c-1.36-0.89-2.76-1.9-4.12-2.88c-4.11-2.97-8.76-6.34-14.37-7.83
		c-2.17-0.71-4.22-1.01-5.89-1.24c-2.14-0.3-3.39-0.51-4.27-1.14c-0.92-0.65-1.84-1.33-2.76-2l-0.14-0.1
		c-3.84-2.81-7.81-5.72-12.04-7.83c-7.1-3.55-14.38-5.3-22.38-7.05c-0.42-0.1-1.51-1.43-2.23-2.31c-1.2-1.45-2.67-3.25-4.73-4.69
		c-5.97-4.71-12.77-9.04-21.92-9.04c-0.82,0-1.65,0.03-2.37,0.1c-5.5,0.37-10.17,3.92-13.22,6.58
		c-6.71,5.87-14.01,11.16-21.08,16.27c-10.93,7.91-22.24,16.09-32.11,26.87c-10.35,10.71-14.1,24.03-17.42,35.78
		c-0.48,1.69-0.96,3.38-1.48,5.15c-0.9,3.24-1.72,6.55-2.52,9.76c-4.06,16.31-7.9,31.71-23.13,41.61c-2.45,1.59-3.77,4.35-3.46,7.2
		c0.31,2.87,2.27,5.38,4.98,6.4c1.21,0.46,3.3,0.92,5.84,0.94c0.09,1.68,0.72,3.25,1.82,4.52c1.07,1.24,3.09,2.75,6.61,2.9
		l0.27,0.01c10.51,0,17.97-6.04,24.42-12.28c2.31,2,5.14,4.13,9.01,4.92l1.04,0.2l1.15-0.13c3.82-0.53,7.17-0.95,10.51-0.79
		c3.08,0.96,6.24,2.15,9.38,3.33c2.4,0.9,4.88,1.84,7.41,2.7l1.25,0.38l1.1-0.04c6.87-0.26,10.72-6.32,12.17-8.6l0.28-0.44l0.2-0.48
		c0.23-0.55,0.41-1.09,0.55-1.62c0.01,0.02,0.01,0.04,0.02,0.06l0.41,1.45c0.9,3.19,1.83,6.49,3.91,8.93
		c1.94,2.26,4.58,3.46,7.64,3.46c0,0,0.01,0,0.01,0c1.13,0,2.16-0.16,2.89-0.28c0.13-0.02,0.25-0.04,0.35-0.05
		c0.11,0.12,0.22,0.24,0.32,0.35c1.2,1.29,3.01,3.23,5.97,4.14c2.79,0.93,5.61,1.67,8.38,2.39c3.36,0.88,6.83,1.79,9.96,3.01
		l0.35,0.13c2.47,0.79,5.18,1.58,8.04,1.52c4.46-0.02,7.21-1.74,9.52-3.61c3.78-3.05,5.29-6.39,6.15-9.64
		c0.58-0.09,1.21-0.23,2.06-0.52c4.67-1.55,9.24-10.14,9.28-10.22c0.32-0.62,0.7-1.2,1.02-1.7c1.15-1.75,1.73-3.58,1.7-5.46
		c-0.06-4.51-3.56-8.02-8.08-8.15l-0.73-0.02c-0.37,0-9.15-0.05-11.68,0l-0.22,0.01c-1.1,0.06-2.1,0.27-3.02,0.57
		c-0.05-0.07-0.1-0.15-0.16-0.22c-0.67-0.83-1.39-2.71-2.35-3.18c0.07-0.06,0.27-0.11,0.34-0.17l2.46,0.26
		c1.57,0.16,3.17,0.24,4.78,0.24c5.59,0,10.67-0.92,15.58-1.8c4.33-0.78,8.68-0.35,13.06-0.35c0.44,0,0.89,0.01,1.35,0.03l0.24,0
		c1.88,0,3.76,0.17,5.81,0.35c2.04,0.19,4.36,0.39,6.74,0.39c0.86,0,1.67-0.03,2.47-0.08c2.29-0.11,4.45-0.5,6.43-1.14
		c0.19,1.1,0.44,2.44,0.76,4.1l0.32,1.38c1.14,4.92,2.85,12.35,11.67,18.07l1.32,0.86c4.09,2.68,6.55,4.3,12.68,5.23
		c1.57,0.24,4.51,0.18,6.36-0.27c7.71-1.67,16.31,0.34,23.2,5.36l0.6,0.39c0.56,0.32,1.33,0.97,2.09,1.61
		c1.59,1.34,3.56,3,6.21,3.99c1.73,0.69,3.61,1.05,5.57,1.06c0.04,0,0.09,0,0.13,0c3.78,0,5.84-1.15,7.35-2
		c0.01,0,0.02-0.01,0.03-0.02c0.25,0.33,0.51,0.7,0.74,1.02c1.08,1.52,2.43,3.41,4.38,5.19c3.73,3.56,8.37,3.98,11.54,3.98
		c1.49,0,2.92-0.1,4.17-0.19c0.45-0.03,0.95-0.05,1.41-0.08c0.88-0.04,1.69-0.09,2.24-0.15c0.93-0.11,1.56-0.25,1.86-0.32
		c1.64,1.19,3.35,1.36,4.13,1.36c0.66,0,1.32-0.09,1.97-0.28l7.31-2.4c2.08-0.65,3.76-2.14,4.59-4.06
		C861.86,538.6,860.3,535.27,859.16,532.83z M628.65,496.56c-0.19-0.29-0.38-0.57-0.56-0.84c-0.23-0.34-0.46-0.68-0.74-1.12
		c-1.08-1.61-2.03-3.02-2.49-4.28c2.19,0.22,4.52,0.44,6.93,0.54L628.65,496.56z"/>
	<path class="st1" d="M519.96,506.18l-3.84-1.92c-3.31-2.01-5.52-5.71-7.87-9.66c-1.11-1.85-2.25-3.77-3.5-5.53
		c-1.2-1.75-2.88-3.25-4.22-4.46c-0.24-0.22-0.55-0.49-0.81-0.73c-4.12-11.32-8.49-24.52-9.56-38.89
		c-0.27-3.58-2.35-9.71-4.65-13.66l-0.08-0.13c-6.55-10.68-21.77-28.39-22.65-29.33c-0.57-0.61-1.2-1.22-1.75-1.76l-0.4-0.39
		l-27.1-22.55l-0.41-0.31c-5.71-4-7.78-4.92-12.22-6.53c-6.96-2.53-16.66-2.17-23.65,0.83l-0.46,0.22c-2.35,1.24-4.53,2.64-6.66,4
		c-3.24,2.07-6.29,4.02-9.39,5.05l-0.58,0.22c-2.65,1.19-5.68,2.13-8.62,3.03c-6.41,1.98-13.67,4.23-19.67,9.74
		c-1.47,1.35-2.67,2.48-3.69,3.44c-1.45,1.37-2.82,2.66-3.39,3.05c-0.16,0.02-0.49,0.04-1.17,0.04c-10.15,0-17.69,2.62-25.22,8.77
		l-0.25,0.22c-4.59,4.17-9.1,8.05-13.86,9.71c-1.96,0.68-4.43,0.97-7.14,1.24l-0.27,0.02c-4.54,0.4-5.54,0.51-9.93,1.55
		c-7.71,1.78-15.18,7.59-21.18,12.26c-2.66,2.07-4.38,3.36-5.11,3.83c-0.53,0.34-1.18,0.75-1.7,1.05
		c-6.6,3.86-12.29,7.19-19.15,7.19l-0.34,0c-3.76-0.33-7.28-2.95-8.47-6.3c-1.13-4.36,0.2-8.7,3.74-12.25
		c2.29-2.29,4.99-4.59,7.61-6.81c4.65-3.95,9.04-7.69,12.33-12.1c5.14-6.9,4.61-17.67-1.17-24.02c-4.44-4.88-12.14-7.25-18.33-8.76
		l-0.52-0.13c-0.3-0.07-0.71-0.15-1.12-0.22l-0.36-0.07c-0.7-0.14-1.38-0.26-2.07-0.38c-1.19-0.21-2.32-0.41-3.4-0.67
		c-2.12-0.6-4.29-2.1-6.6-3.69c-1.64-1.13-3.34-2.31-5.24-3.33l-5.03-2.71l-3.12,4.79c-2.37,3.64-3.36,7.7-3.03,12.42l0.03,0.34
		c1.08,8.52,7.85,17.44,16.08,21.2l0.19,0.08c0.29,0.12,0.59,0.24,0.89,0.35c1.91,0.79,3.78,1.14,5.52,1.28
		c-4.45,3.74-8.9,7.7-12.78,12.47c-7.59,8.36-8.04,21.92-4.57,31.01c4.43,11.91,16.42,18.55,26.38,19.86
		c1.74,0.27,3.47,0.4,5.29,0.4c3.11,0,6.1-0.41,8.93-0.97c0,0.04,0,0.08,0.01,0.12c0.2,4.48,0.35,7.32,0.68,9.06
		c0.71,3.75,2.4,7.88,3.52,10.62c0.04,0.09,0.08,0.19,0.11,0.27c-2.22,1.4-5.49,2.73-6.75,3.06c-1.76,0.21-3.66,0.31-5.06,0.38
		c-0.98,0.05-1.75,0.1-2.15,0.15c-2.09,0.24-3.98,1.14-5.49,2.59c-1.93,1.87-3.08,4.83-4.68,8.92c-0.64,1.63-1.3,3.32-1.93,4.7
		c-0.53,0.8-1.25,1.52-2.11,2.2c-1.09-1.96-2.86-3.38-3.98-4.28l-0.01-0.01l-0.18-0.14c-2.81-2.25-7.12-2.32-10.24-0.19
		c-0.46,0.31-0.93,0.62-1.39,0.93l-0.37,0.25c-1.96,1.3-4.18,2.77-6.54,4.74c-1.55,1.3-2.68,3.25-3.19,5.41
		c-0.55,0.08-1.1,0.21-1.64,0.43c-3.69,1.52-7.87,5.84-8.2,10.18c-0.12,1.58-0.33,4.46-0.55,5.27c-0.06,0.07-0.17,0.21-0.38,0.44
		c-2.51,2.8-3.25,7.8-0.05,11.02c2.17,2.17,10.54,4.41,12.18,4.41h0.41l1.03-0.13l0.47-0.14c0.53-0.16,1-0.35,1.44-0.59l1.93,0.18
		c1.02,0.09,2.19,0.35,3.61,0.65c2.2,0.48,4.69,1.02,7.37,1.02c2.87,0,5.5-0.64,7.83-1.89c4.22-2.03,6.32-5.63,7.85-8.27
		c0.44-0.76,0.89-1.53,1.33-2.15c0.24,0.06,0.48,0.13,0.69,0.18c1.15,0.3,2.57,0.68,4.17,0.77c6.8,0.38,12.75-3.48,15.68-5.8
		c1.16-0.92,2.25-1.94,3.25-2.87c1.11-1.04,2.25-2.11,3.26-2.8c1.04-0.42,2.44-0.63,4.18-0.63c2.94,0,6.32,0.62,9.07,1.14
		c5.96,1.51,12.35,0.79,17.16-1.93c2.59-1.47,5.2-2.83,7.3-3.93l0.35-0.19c1.15-0.6,2.16-1.14,2.97-1.58
		c4.89-2.68,8.58-8.52,10.81-12.95c1.09-2.17,2.74-6.24,3.2-7.36c0.44,0.02,0.9,0.04,1.38,0.04c0,0,0,0,0.01,0
		c3.2,0,6.54-0.53,9.49-0.99c2.03-0.32,3.95-0.62,5.42-0.69l0.26-0.02c0.57-0.05,1.17-0.08,1.76-0.08c2.94,0,7.23,0.35,10.43,0.71
		c2.69,0.3,4.51,0.56,8.05,0.72c0.48,0.02,1,0.06,1.54,0.11c1.13,0.09,2.4,0.19,3.78,0.19c3.6,0,6.54-0.86,8.96-2.04
		c0.68,0.67,1.81,2.25,2.57,2.9c-0.11,0-0.22,0.01-0.34,0.01c-2.31,0-4.43,0.94-5.89,2.49c-2-0.96-5.31-0.96-8.33-0.72
		c-3.57,0.29-6.8,0.82-10.4,1.59c-2.67,0.57-4.63,1.87-5.73,4.31c-1.13,2.51-0.97,5.39,0.43,7.9c1.85,3.31,3.64,6.3,5.52,9.46
		l0.83,1.4c0.87,1.45,3,3.89,7.52,3.89c0.56,0,1.17-0.04,1.86-0.08c0.06,0,0.13-0.01,0.19-0.01c0.12,0.21,0.23,0.42,0.35,0.63
		c1.36,2.45,3.04,5.48,6.06,7.87c3.03,2.6,7.22,4.08,11.54,4.08c1.91,0,3.77-0.28,5.54-0.84c8.18-2.57,16.17-5.21,23.96-9.2l1.02,0
		l0.63-0.03c0.5-0.05,1.01-0.09,1.53-0.13c3.13-0.23,7.85-0.58,11.47-4.39l0.34-0.35l0.28-0.4c1.42-2.06,2.73-4.13,3.95-6.23
		c0.06,0.24,0.12,0.49,0.2,0.75l0.05,0.17c1.84,5.39,7.38,7.81,12.06,7.81c0,0,0,0,0.01,0l0.27-0.01c5.3-0.23,9.91-1.9,13.97-3.37
		l0.28-0.1c0.57-0.21,1.15-0.41,1.73-0.62l0.4-0.16c3.08-1.33,7.57-1.56,12.99-0.67l0.7,0.11l0.7-0.05
		c5.71-0.36,10.12-3.13,13.76-6.08c6.9,7.27,15.65,10.95,26.02,10.95c0.38,0,0.76,0,1.16-0.02l1.69-0.12l0.47-0.11
		c3.39-0.8,5.68-3.38,5.98-6.73c0.06-0.66,0.03-1.31-0.08-1.94c0.63-0.07,1.25-0.17,1.86-0.31c3.21-0.71,5.6-3.19,6.08-6.34
		C524.45,510.69,522.93,507.67,519.96,506.18z M430.42,488.97c-0.3,0.28-0.6,0.56-0.91,0.84c-1.7,1.56-3.88,3.55-5.56,6.06
		c-1.22-2.05-2.03-3.55-2.69-4.93c2.79-0.4,5.57-1.25,7.81-2.24c0.49-0.01,0.97-0.03,1.44-0.06
		C430.47,488.75,430.45,488.86,430.42,488.97z"/>
</g>
<g>
	<path class="st3" d="M675.92,507.7c-0.39-0.48-1.19-0.55-1.63-0.55c-0.19,0-0.38,0.01-0.55,0.04c-1.37,0.17-2.62,0.25-3.93,0.25
		c-0.74,0-1.4-0.03-2.01-0.05c-0.54-0.02-1.04-0.04-1.53-0.04c-0.81,0-1.47,0.05-2.13,0.18l-0.14,0.03l-0.08,0.13
		c-0.11,0.19-2.64,4.63-2.29,7.41c0.36,3.02,3.45,3.64,5.78,4.11c0.83,0.17,1.8,0.35,2.77,0.35c1.66,0,2.78-0.55,3.33-1.67
		c1.39-3.61,2.22-6.57,2.61-9.29C676.2,508.15,676.06,507.86,675.92,507.7z"/>
	<path class="st3" d="M842.84,517.68c-1.45-2.09-3.97-3.77-6-5.12c-0.94-0.62-1.74-1.16-2.31-1.65l-0.41-0.3
		c-0.47-0.4-1.03-0.6-1.65-0.6c-2.28,0-4.78,2.74-4.82,3.69c-0.07,1.38,1.89,3.82,4.45,6.87l0.55,0.66c1.29,1.54,2.7,2.37,4.17,2.48
		l0.02,0c1.49,0,2.67-0.5,3.93-1.67C841.7,521.17,843.76,519.02,842.84,517.68z"/>
	<path class="st3" d="M853.52,535.47c-0.38-0.83-0.75-1.61-0.88-2.16c-0.22-1.02-0.36-2.1-0.49-3.14c-0.21-1.68-0.41-3.27-0.93-4.5
		c-0.63-1.48-2.36-2.59-4.02-2.59c-0.59,0-1.15,0.13-1.67,0.39c-2.52,1.26-4,2.59-3.59,5.42c1.37,4.11,2.06,7.08,2.97,11.13
		c0.11,0.62,0.52,2.65,1.5,2.65c0.07,0,0.14-0.01,0.22-0.03l7.2-2.37c0.37-0.11,0.62-0.33,0.76-0.65
		C855.02,538.67,854.26,537.04,853.52,535.47z"/>
</g>
<g>
	<path class="st3" d="M386.95,513.7c-0.19-0.32-0.4-0.68-0.61-1.13c-0.63-1.21-0.99-2.48-1.31-3.59c-0.64-2.25-1.19-4.17-3.6-3.82
		c-3.45,0.49-6.79,0.72-10.51,0.72c-0.05,0-1.21,0.01-1.57,0.82c-0.41,0.94,0.53,1.81,1.52,2.72c0.56,0.52,1.15,1.06,1.55,1.64
		c0.69,1,1.35,2.46,1.99,3.87c1.01,2.23,1.88,4.16,2.91,4.48c0.42,0.13,0.9,0.2,1.44,0.2c2.32,0,5.56-1.26,7.88-3.08
		C387.96,515.42,387.54,514.69,386.95,513.7z"/>
	<path class="st3" d="M218.92,510.21l-0.19-0.15c-0.71-0.56-2-0.49-2.86,0.1c-0.6,0.41-1.2,0.8-1.8,1.2c-1.92,1.27-3.9,2.58-6,4.34
		c-0.76,0.63-1.17,1.85-1.25,2.78c-0.06,0.73,0.07,1.33,0.38,1.69c0.17,0.19,1.7,1.9,2.03,2.17c0.5,0.41,1.3,0.97,2.44,0.97
		c0.65,0,1.34-0.18,2.05-0.54c3.7-1.87,7.54-8.74,7.69-9.14C221.81,512.51,220.54,511.5,218.92,510.21z"/>
	<path class="st3" d="M206.7,526.51c-0.76-1.08-3.3-4.05-4.73-4.05c-0.13,0-0.24,0.02-0.35,0.07c-1.97,0.81-4.25,3.37-4.37,4.89
		c-0.5,6.67-0.68,7.37-2.51,9.41c-0.51,0.57-0.86,1.88-0.28,2.46c0.51,0.51,7.06,2.59,7.78,2.59l0.15-0.02
		c0.59-0.17,1.07-1.67,2.4-6.27c0.71-2.47,1.52-5.28,2.43-7.82C207.28,527.6,207.3,527.36,206.7,526.51z M202.25,541.55
		L202.25,541.55L202.25,541.55L202.25,541.55z"/>
	<path class="st3" d="M517.18,511.75c-1.86-0.93-4.04-2.02-4.04-2.02c-4.78-2.79-7.55-7.43-10.22-11.91
		c-1.05-1.76-2.13-3.57-3.31-5.23c-0.77-1.13-2.08-2.3-3.24-3.34c-1.01-0.9-1.96-1.76-2.13-2.23c-4.37-11.93-9.13-25.97-10.29-41.57
		c-0.18-2.39-1.85-7.61-3.82-11.01c-6.21-10.12-21.06-27.45-21.87-28.31c-0.52-0.55-1.08-1.1-1.57-1.58l-0.4-0.39l-26.73-22.22
		c-5.32-3.72-6.94-4.39-10.77-5.78c-2.45-0.89-5.36-1.36-8.41-1.36c-3.79,0-7.57,0.73-10.67,2.06c-2.13,1.13-4.2,2.45-6.21,3.74
		c-3.42,2.18-6.95,4.44-10.78,5.72c-2.99,1.34-6.21,2.34-9.33,3.3c-6.06,1.88-12.33,3.82-17.3,8.38c-1.44,1.33-2.63,2.44-3.62,3.38
		c-4.59,4.33-5.07,4.78-8.83,4.78c-8.71,0-14.87,2.13-21.29,7.37c-5.09,4.62-10.13,8.94-16.01,10.98c-2.63,0.91-5.55,1.25-8.64,1.56
		c-4.44,0.39-5.13,0.43-9.34,1.44c-6.34,1.46-13.06,6.67-18.76,11.1c-1.86,1.45-4.36,3.37-5.53,4.14c-0.61,0.4-1.35,0.86-1.95,1.21
		c-7.07,4.14-13.75,8.04-22.29,8.04c-0.21,0-0.43,0-0.63-0.01c-6.38-0.45-12.19-4.86-14.14-10.7c-1.8-6.57,0.13-13.3,5.3-18.46
		c2.47-2.47,5.27-4.85,7.98-7.15c4.37-3.72,8.5-7.23,11.37-11.08c3.33-4.47,2.97-12-0.78-16.12c-3.74-4.1-12.09-6.14-15.23-6.91
		l-0.55-0.14c-0.31-0.08-0.87-0.14-1.16-0.21c-1.99-0.39-3.9-0.66-5.84-1.14c-4.97-1.36-8.81-5.2-13.21-7.57
		c-1.7,2.6-2.26,5.42-2.03,8.58c0.84,6.64,6.36,13.52,12.5,16.32c0.26,0.11,0.52,0.21,0.78,0.31c1.94,0.83,3.99,0.95,5.9,0.95
		c0.41,0,0.83-0.01,1.24-0.01c0.41-0.01,0.82-0.01,1.23-0.01c1.19,0,2.6-0.01,3.89,0.33c1.19,0.31,2.42,1.48,2.59,2.99
		c0.1,0.88-0.3,1.56-1.42,2.43c-1.03,0.87-2.07,1.73-3.11,2.59c-5.28,4.36-10.73,8.87-15.17,14.34c-5.94,6.41-6.21,17.56-3.45,24.78
		c3.54,9.52,13.32,14.83,21.44,15.87c1.45,0.23,2.89,0.34,4.41,0.34c4.78,0,9.34-1.15,13.75-2.26c0.16-0.04,0.3-0.06,0.42-0.06
		c0.2,0,0.58,0,0.65,1.01c0.13,1.96,0.23,4.2,0.33,6.35c0.16,3.51,0.31,6.82,0.57,8.22c0.59,3.12,2.14,6.92,3.17,9.42
		c0.44,1.06,0.78,1.9,0.9,2.32c0.4,1.43,0.03,2.97-0.92,3.85c-3.35,3.07-10.14,5.51-11.39,5.67c-2.01,0.25-4.16,0.37-5.72,0.45
		c-0.8,0.04-1.42,0.08-1.76,0.11c-0.74,0.09-1.36,0.37-1.88,0.88c-0.95,0.93-2,3.61-3.21,6.72c-0.73,1.87-1.48,3.8-2.24,5.41
		c-2.13,3.54-5.71,5.61-9.17,7.62c-0.87,0.5-1.73,1-2.56,1.51l-0.1,0.1c-1.42,2.25-2.85,4.41-4.68,6.02c-1.43,1.32-3.25,1.63-5,1.84
		l-0.12,0.01l-0.08,0.09c-2.69,3.09-3.56,7.21-4.41,11.19c-0.13,0.61-0.26,1.22-0.39,1.83l-0.11,0.57l0.35,0.03
		c1.41,0.13,2.84,0.44,4.36,0.77c1.99,0.43,4.04,0.88,6.05,0.88c1.9,0,3.55-0.4,5.01-1.22c2.58-1.19,3.96-3.56,5.3-5.85
		c0.88-1.51,1.78-3.06,3.03-4.27c0.73-0.8,1.6-1.17,2.74-1.17c1.01,0,2.11,0.29,3.18,0.58c0.98,0.26,1.99,0.53,2.95,0.58
		c4.76,0.26,9.28-2.72,11.49-4.47c0.96-0.76,1.93-1.66,2.86-2.53c1.44-1.35,2.94-2.75,4.52-3.74c1.93-0.92,4.28-1.37,7.17-1.37
		c3.58,0,7.39,0.71,10.42,1.28c1.62,0.43,3.29,0.64,4.95,0.64c2.89,0,5.59-0.66,7.8-1.91c2.66-1.51,5.33-2.9,7.47-4.03
		c1.25-0.66,2.36-1.24,3.23-1.72c3.82-2.09,7.04-7.9,8.25-10.29c1.12-2.23,3.06-7.07,3.08-7.12l0.09-0.22l-4.44-3.39l-0.18,0.3
		c-0.03,0.05-2.94,4.85-4.83,7.07c-7.83,10.67-20.59,12.04-30.83,12.04c-0.71-0.03-1.41-0.04-2.12-0.04
		c-12.69,0-22.91,4.26-30.38,12.66c-0.35,0.4-0.96,0.45-1.22,0.12c-0.16-0.2-0.2-0.53-0.11-0.91c0.21-0.88,0.3-1.14,0.84-2.11
		c7.95-11.27,21.5-12.94,32.43-13.14c8.07-0.54,13.95-1.94,19.06-4.54c6.55-3.33,11.41-10.71,13.31-16.55
		c1.25-3.84,1.86-7.93,2.45-11.89c0.47-3.14,0.95-6.4,1.75-9.38c0.14-0.42,0.56-0.64,0.9-0.64c0.09,0,0.18,0.02,0.32,0.07
		c0.42,0.07,1.2,0.37,1.2,0.98c-1.1,6.2-2.61,14.69,0.23,21.77c1.32,2.81,4.13,4.17,8.6,4.17c2.7,0,5.66-0.47,8.52-0.92
		c2.21-0.35,4.29-0.68,6.1-0.76c0.75-0.07,1.53-0.1,2.31-0.1c3.56,0,6.99,0.69,10.31,1.36c2.9,0.58,5.9,1.19,8.97,1.33
		c0.55,0.03,1.13,0.07,1.74,0.12c1.06,0.09,2.17,0.17,3.28,0.17c2.6,0,4.44-0.51,5.78-1.61c0.94-0.77,0.61-1.91,0.19-3.36
		l-0.08-0.26c-0.07-0.25-0.15-0.52-0.25-0.81c-0.6-1.92-1.5-4.82,0.01-6.16c0.21-0.17,0.53-0.28,0.83-0.28
		c0.25,0,0.58,0.08,0.7,0.46c0.17,0.55,0.33,1.11,0.49,1.67c0.66,2.32,1.34,4.72,2.83,6.77c3.11,3.98,7.94,7.75,13.93,10.88
		c3.85,2.66,8.51,7.14,8.88,13.37c0,2.83-2.74,4.8-4.78,6.03c-3.21,1.6-8.26,3.55-11.32,3.4c-2.05-0.1-3.76-1.41-3.87-1.51
		c-3.13-2.87-2.77-3.86-4.81-7.28c-1.08-1.82-2.2-3.69-3.62-5.35c-1.95-2.16-4.4-2.99-7.71-2.72c-3.19,0.26-6.13,0.85-9.64,1.6
		c-0.73,0.16-1.29,0.58-1.57,1.21c-0.31,0.69-0.25,1.53,0.19,2.3c1.81,3.23,3.57,6.19,5.44,9.32l0.83,1.4
		c0.45,0.76,1.4,0.86,2.18,0.86c0.43,0,0.89-0.03,1.38-0.07c0.52-0.04,1.06-0.07,1.59-0.07c1.62,0,2.65,0.38,3.31,1.21
		c0.56,0.85,1.07,1.77,1.56,2.66c1.22,2.2,2.48,4.47,4.58,6.09c1.92,1.69,4.69,2.67,7.59,2.67c1.28,0,2.52-0.19,3.68-0.55
		c8.38-2.63,16.54-5.33,24.29-9.48l2.55,0c0.56-0.06,1.14-0.1,1.71-0.14c2.68-0.2,5.45-0.4,7.42-2.47
		c2.49-3.62,4.61-7.25,6.48-11.08c1.68-3.44,1.7-6.8,0.04-9.45c-4.94-7.91-5.82-9.99-7.84-15.38l-0.06-0.15l-0.15-0.04
		c-0.59-0.17-1.17-0.4-1.73-0.62c-1.22-0.48-2.47-0.97-3.93-0.97l-0.19,0c-1.7,0.05-2.84,0.58-3.32,1.53l-0.07,0.14l8.97,17.7
		c0.58,1.39,1.24,2.78,0.89,4.85c-0.35,2.07-4.75,8.98-6.07,9.87c-0.33,0.22-0.58,0.33-0.78,0.33c-0.11,0-0.57-0.09-0.27-1.13
		c0.84-2.87,1.88-9.62,1.6-11.79c-0.32-2.51-7.83-14.95-8.15-15.48l-0.14-0.22c-1.16-1.89-2.36-3.85-2.26-6.15
		c0-1.05,0.98-1.79,1.69-2.06c1.31-0.49,2.54-0.68,3.89-0.97c3.19-0.7,6.49-1.43,7.66-3.21c3.6-5.46,5.74-11.16,7.15-19.05
		c0.06-0.35,0.31-1.01,0.81-1.01c0.29,0,0.58,0.1,0.7,0.78c1.31,7.47-0.47,15.3-4.9,21.51c-0.26,0.36-0.45,1.06-0.32,1.71
		c0.11,0.63,0.82,1.14,0.82,1.14c1.73,1.17,8.01,0.5,12.57-1.9c3.48,0.07,6.77-0.54,9.94-1.14c1.01-0.19,2.01-0.38,3-0.54
		c0.32,0.18,0.56,0.46,0.62,0.69c-2.67,3.03-4.31,6.42-5.15,10.66c-0.74,0.76-1.57,1.51-2.36,2.24c-2.93,2.68-6.08,5.67-6.22,9.5
		c0,0-0.09,1.37,1.39,1.48c0.47,0.04,1-0.21,1.5-0.42c0.55-0.22,1.12-0.44,1.55-0.39c0.48,0.08,0.82,0.45,0.86,0.94l-3.33,4.89
		c-1.25,2.04-0.72,4.21-0.21,6.31c0.37,1.16,0.2,2.07,0.52,3.09c0.83,2.44,3.8,3.6,6.17,3.59c4.35-0.19,8.31-1.62,12.14-3.01
		c0.68-0.25,1.36-0.49,2.06-0.74c4.19-1.81,9.8-2.19,16.46-1.1c5.36-0.34,9.39-3.88,13.28-7.32c1.66,0.05,3.4,1.03,5.17,2.94
		c5.79,6.22,12.9,9.24,21.73,9.24c0.33,0,0.66,0,1-0.01l0.9-0.07c0.92-0.22,1.16-0.66,1.21-1.24c0.06-0.69-0.47-1.37-1.46-1.84
		l-4.94-2.62c-3.95-2.51-8.26-5.53-9.44-9.51c-1.29-4.24-3.67-8.57-5.44-11.46c-0.35-0.57-0.73-1.12-1.14-1.71
		c-0.7-1.01-1.42-2.04-1.93-3.12l0.02-0.02c5.39,1.93,8.4,5.91,12.03,12.54c2.7,4.93,9.74,10.26,16.39,10.26
		c0.87,0,1.73-0.09,2.55-0.27c0.72-0.16,1.18-0.6,1.28-1.22C517.86,512.57,517.79,512.05,517.18,511.75z M421.04,432.12
		c-0.15,0.52-0.47,0.86-0.82,0.86c-0.16,0-0.54-0.07-0.67-0.74c-1.4-7.14-2.24-10.66-3.87-13.95c-0.53-1.06-1.17-1.95-1.74-2.72
		c-1.2-1.64-2.24-3.06-1.07-4.97c0.34-0.56,1.2-0.94,2.13-0.94c0.46,0,0.89,0.09,1.26,0.27c1.38,0.65,2.72,2.32,4.09,5.1
		C423.8,422.06,421.07,432.02,421.04,432.12z M465.97,503.3c0,0-0.21,2.03-1.16,2.89c-0.95,0.86-4.36,1.34-6.14,1.27
		c-1.79-0.07-2.4-0.32-2.78-0.87c-0.42-0.62,0.26-1.82,0.26-1.82c0.22-0.45,2.32-4.8,6.53-5.94c0,0,1.36-0.5,2.65,0.14
		C466.62,499.61,466.02,502.85,465.97,503.3z M478.19,475.21c-0.26,1.66-0.65,2.45-0.87,2.84c-0.22,0.39-0.6,1.27-1.82,1.27
		c-1.34,0-1.24-1.58-1.26-1.8c0,0-0.16-4.39-1-6.24c-0.92-2.01-5.33-7.69-7.88-7.45c-0.65,0.06-2.31,1.05-3.55,2.66
		c-1.5,1.95-1.49,2.18-1.96,2.48c-0.46,0.3-1.06,0.14-1.26-1.01c-0.2-1.15-0.41-2.08,0.13-4.28c0.54-2.2,1.07-2.67,1.71-4.24
		c0,0,1.33-3.07,1.83-3.83c1.37-2.08,3.21-1.94,3.21-1.94c0.49,0.04,2.07-0.17,3.76,1.95c1.96,2.46,1.54,2.23,2.09,3.1
		c0.55,0.87,1.13,1.77,2.76,3.54c1.62,1.76,3.41,5.21,3.91,7.34C478.48,471.74,478.45,473.55,478.19,475.21z"/>
</g>
<path class="st3" d="M840.8,541.2c-0.53-4.33-1.68-8.4-3.63-12.8l-0.09-0.2l-0.22,0.01c-4.17,0.25-6.76-3.13-9.25-6.38
	c-0.82-1.08-1.61-2.1-2.43-2.98c-1.3-1.51-2.73-2.76-4-3.87c-1.46-1.29-2.73-2.4-3.22-3.41c-0.59-1.22-1.23-3.58-1.85-5.86
	c-0.44-1.63-0.86-3.18-1.24-4.23c-0.08-0.21-0.17-0.43-0.25-0.66c-0.75-2.01-1.68-4.51-4.28-4.95c-1.31-0.21-2.72-0.27-4.07-0.33
	c-3.77-0.16-7.55-0.82-9.49-3.52c-1.79-2.49-1.05-4.78-0.04-7.24c0.44-1.07,0.76-1.99,1.02-3.03c1.36-4.54,1.81-10.19,0.79-14.15
	c-0.16-0.64-0.37-1.27-0.58-1.88c-0.55-1.65-1.19-4.15-0.77-4.92c0.41-0.77,0.85-0.9,1.6-0.9c0.66,0,1.41,0.22,2.14,0.42
	c0.51,0.15,0.91,0.22,1.39,0.33c1.87,0.45,4.66,0.96,7.22,0.96c4.24,0,8.67-0.91,12.51-2.56c7.25-3.52,14.4-11.46,14.04-21.28
	c-0.95-9.95-7.1-19.57-18.81-29.4c-0.28-0.24-0.58-0.49-0.88-0.74c-1.53-1.26-3.36-2.84-3.41-4.26c-0.05-1.41,3.6-2.27,5.9-2.79
	c0.53-0.12,1.01-0.23,1.41-0.34l0.59-0.16c2.92-0.76,5.93-1.55,8.41-3.27c8.36-5.62,8.05-15.53,7.11-20.99
	c-0.04-0.14-0.08-0.32-0.13-0.52c-0.15-0.71-0.35-1.6-1-1.6c-0.21,0-0.41,0.1-0.63,0.3c-0.25,0.23-0.5,0.47-0.76,0.71
	c-0.95,0.91-2.02,1.93-3.25,2.63c-2.65,1.57-5.84,2.23-8.93,2.88c-1.96,0.41-3.99,0.84-5.89,1.49c-8.31,2.86-13.46,7.07-15.32,12.51
	c-0.96,2.82-0.45,6.4,1.41,9.82c2.72,4.29,6.65,8.06,10.45,11.7c5.99,5.74,12.18,11.67,13.62,19.73c0.78,4.69-1.13,8.64-5.82,12.07
	c-2.45,1.49-5.59,2.27-9.09,2.27c-4.28,0-8.9-1.16-12.69-3.19c-4.86-2.43-9.56-5.58-14.11-8.61c-6.83-4.57-13.9-9.29-21.74-11.79
	c-3.4-1.54-7.17-2.3-10.81-3.04c-5.19-1.05-10.55-2.14-14.84-5.5c-1.47-0.96-2.94-2.02-4.36-3.05c-3.9-2.82-7.94-5.74-12.51-6.9
	c-1.7-0.58-3.37-0.82-4.99-1.05c-2.49-0.36-4.85-0.69-7.01-2.24c-0.98-0.7-1.96-1.42-2.95-2.14c-3.64-2.66-7.39-5.41-11.15-7.29
	c-6.45-3.23-13.35-4.88-21.03-6.56c-2.46-0.58-3.98-2.44-5.6-4.41c-1.08-1.32-2.2-2.69-3.63-3.65c-5.93-4.7-11.3-7.83-18.22-7.83
	c-0.64,0-1.3,0.03-1.95,0.08c-3.63,0.24-7.18,3-9.54,5.05c-6.91,6.05-14.34,11.43-21.53,16.63c-10.7,7.75-21.77,15.76-31.23,26.09
	c-9.3,9.6-12.69,21.6-15.96,33.21c-0.48,1.71-0.97,3.42-1.47,5.13c-0.88,3.16-1.69,6.43-2.48,9.59
	c-4.26,17.12-8.68,34.21-25.78,45.32c-1.12,0.73-0.73,2.17,0.33,2.57c0.45,0.17,8.61,2.62,14.76-4.6
	c4.47-5.24,6.72-10.29,11.9-15.83c0.18-0.17,0.77-0.74,1.26-0.59c0.36,0.11,0.52,0.32,0.35,0.95c-0.59,2.23-2.02,4.16-3.34,6.05
	c-1.34,1.93-2.73,3.93-3.42,6.22c-1.64,4.91-6.22,8.88-10.27,12.38c0,0-0.64,0.42-1.02,0.88c-0.38,0.47-0.36,0.67-0.36,0.67
	c-0.11,1.09,0.75,1.75,2.48,1.82c0,0,0,0,0,0c9.59,0,16.4-6.82,23-13.41c0.29-0.29,0.63-0.42,1.1-0.42c0.35,0,0.6-0.05,1.05,0.18
	c0.45,0.22,1.45,1.22,2.23,1.91c2.16,1.92,4.38,3.91,7.27,4.5l0.05,0.01l0.06-0.01c3.49-0.49,6.65-0.89,9.88-0.89
	c0.92,0,1.82,0.03,2.61,0.09c3.5,1.06,6.99,2.37,10.36,3.64c2.39,0.9,4.85,1.83,7.32,2.66l0.06,0.02l0.06,0
	c3.19-0.12,5.49-3.09,7.16-5.72c0.78-1.86,0.41-3.69,0.05-5.46c-0.22-1.09-0.43-2.13-0.38-3.15c0.59-0.3,1.39-0.25,2.26-0.11
	c0.76,0.11,1.87,0,2.24-0.05c0.83-0.12,1.72-1.09,1.47-2.35c-0.64-3.2-2.24-5.17-3.83-7.63c-1.4-2.08-2.72-4.05-3.39-6.28
	c-1.06-2.93-3.29-5.36-5.45-7.7c-2.5-2.72-4.86-5.3-5.57-8.58c0,0-0.23-0.69,0.03-0.95c0.25-0.25,0.92,0.04,0.92,0.04
	c1.14,0.84,2.3,1.78,3.42,2.69c3.63,2.95,7.39,6.01,11.95,6.7c4.26,0.42,8.91,0.95,13.46,0.57c1.2-0.2,1.81-1.24,1.52-2.27
	c-1.81-3.84-3.68-7.96-4.83-12.46c-0.97-3.39-3.09-12.31-0.92-19.03c0.21-0.65,0.66-0.88,1.05-0.88c0.05,0,0.09,0.01,0.16,0.03
	c0.73,0.18,1.24,1.04,1.34,1.74l0.06,0.87c0.64,9.16,1.25,17.82,6.86,25.19c1.49,2.38,3.63,3.65,5.71,4.88
	c1.43,0.85,3.06,1.59,4.11,2.91c1.17,1.49,1.38,4.05,0.56,5.61l-6.87,10.14c-1.62,2.31-3.2,4.8-3.77,7.33
	c-0.51,2.56-0.29,5.04-0.08,7.43l0.05,0.58c-0.16-0.06-0.34-0.27-0.51-0.55c-2.77-5.02-3.33-9.27-1.93-12.52
	c0.92-2.12,6.5-10.05,8.14-12.65c0.52-0.83,0.95-1.67,0.5-2.25c-0.55-0.7-4.75-2.51-5.85-2.51c-0.08,0-0.16,0.01-0.22,0.03
	c-0.99,0.28-1.62,1.19-2.18,1.98c-0.12,0.17-0.24,0.34-0.38,0.54l-8.48,15.38l-0.18,0.57c-0.5,1.54-0.92,2.87-0.5,4.65
	c0.46,2.31,1.19,4.79,1.72,6.6c0.15,0.5,0.29,1.01,0.43,1.51c0.75,2.67,1.46,5.18,2.65,6.57c0.75,0.88,1.68,1.28,2.93,1.28
	c0.63,0,1.3-0.1,1.94-0.2c1.06-0.16,2.2-0.3,3.08-0.08c1.28,0.32,2.16,1.27,3.09,2.27c0.94,1.01,1.9,2.05,3.31,2.46
	c2.62,0.88,5.37,1.6,8.03,2.29c3.54,0.93,7.21,1.89,10.69,3.24c1.97,0.63,4.08,1.23,6.12,1.22c2.26-0.01,3.65-0.63,5.63-2.23
	c2.76-2.23,3.65-4.45,4.34-7.63c0.55-2.93,1.51-3.13,3.64-3.25c1.02-0.05,1.19-0.01,2.18-0.34c1.06-0.35,4.12-4.1,5.72-7.18
	c0.44-0.84,0.92-1.6,1.35-2.26c0.47-0.72,0.68-1.33,0.67-1.95c-0.02-1.51-1.28-2-2.09-2.02l-0.53-0.02c0,0-9.05-0.05-11.53,0
	c-3.71,0.2-5.34,3.77-6.64,6.93c-0.5,1.22-0.98,2.37-1.61,3.38c-0.98,1.78-2.9,2.86-5.26,2.8c-0.68-0.02-2.21-0.42-3-0.61
	c-4.88-1.2-9.94-2.44-11.99-7.29c-0.19-0.83-0.52-2.56,0.72-4c2.61-3.02,6.05-6.85,9.58-9.6c4.91-1.03,9.82-4.66,12.52-9.24
	c0.56-0.79,0.85-1.71,1.15-2.61c0.45-1.38,0.87-2.68,2.12-3.49c0.8-0.4,1.43-0.26,1.61,0.43c0.46,2.54-0.5,5.01-1.44,7.39
	c-0.21,0.54-0.42,1.07-0.61,1.59l-0.14,0.38l0.41,0.04c1.35,0.13,2.75,0.21,4.16,0.21c5.03,0,9.83-0.87,14.48-1.7
	c4.6-0.83,9.35-1.69,14.28-1.69c0.52,0,1.05,0.01,1.59,0.03c2.18,0,4.31,0.19,6.37,0.38c2.01,0.18,4.09,0.37,6.18,0.37
	c0.74,0,1.44-0.02,2.12-0.07c6.29-0.29,10.86-3.15,12.23-7.65c1.3-3.85,1.16-10.51-0.42-19.8c-0.08-0.45-0.13-0.73-0.13-0.79
	c0-0.06,0.01-0.12,0.01-0.18c0.01-0.34,0.02-0.7,0.46-0.94c0.58-0.31,1.21,0,1.5,0.75c2.39,6.67,3.76,14.37,4.49,19.66
	c0.81,5.14,2.96,10.34,6.59,15.91c4.51,6.72,11.92,10.57,20.33,10.57c1.96,0,3.92-0.36,5.87-0.63c1.36-0.18,1.86-0.1,2.77-0.1
	c10.71,0,20.03,4.64,26.97,13.42c0,0,0.13,0.16,0.11,0.43c-0.02,0.37-0.54,0.73-1.01,0.54l-0.91-0.71
	c-6.04-4.68-12.29-9.52-20.12-10.49c-1.39-0.25-2.84-0.38-4.42-0.38c-2.27,0-4.49,0.25-6.64,0.5c-2.15,0.25-4.18,0.48-6.25,0.48
	c-2.68,0-4.93-0.4-7.09-1.27c-9.02-2.97-16.38-13.34-18.74-19.78c-0.11-0.22-0.43-0.6-0.95-0.6c-0.24,0-0.5,0.08-0.75,0.25
	c-1.05,0.65-1.23,1.01-1.38,1.66c-0.14,0.54,0.74,5.16,1.12,7.14c1.18,4.91,1.99,10.7,9.27,15.43c4.81,3.12,6.23,4.36,11.55,5.16
	c0.9,0.14,3.13,0.06,4.01-0.18c2.28-0.5,4.62-0.75,6.98-0.75c7.42,0,14.97,2.53,21.31,7.15c1.07,0.6,2.06,1.45,3.03,2.26
	c1.37,1.15,2.77,2.35,4.45,2.95c1.05,0.43,2.19,0.64,3.39,0.65c2.87,0.02,3.6-0.87,5.65-1.87c0.9-0.44,1.82-0.6,2.4-0.6
	c2.31,0,3.59,1.8,5.21,4.07c0.98,1.37,2.08,2.92,3.58,4.28c2.1,2.03,4.99,2.29,7.28,2.29c1.24,0,2.51-0.09,3.74-0.18
	c1.18-0.08,2.61-0.11,3.35-0.2c0.74-0.09,1.15-0.19,1.15-0.19L840.8,541.2z M596.68,506.93c-0.43,0.76-1.43,1.2-2.75,1.2
	c-1.15,0-2.38-0.34-3.12-0.87c-1.72-1.22-2.72-3.28-2.87-5.94c-0.03-0.61-0.07-1.24,0.76-1.88c0.43-0.25,0.65-0.25,1.15-0.25
	c1.64,0,4.27,1.05,5.67,2.75C595.63,502.08,597.8,504.96,596.68,506.93z M599.04,469.11c-0.6,0.8-1.55,1.37-2.45,0.92
	c-0.85-0.3-1.62-1.4-2.09-2.24c-0.59-1.05-1.07-1.96-2.47-1.86c-0.1,0,0,0-0.22,0.02c-1.24,0.11-2.16,0.71-3.14,1.47
	c-0.5,0.39-2.47,1.87-2.97,2.28c-2.68,2.26-5.38,4.6-6.03,7.77c-0.28,1.15-0.28,1.15-0.37,1.69c-0.19,1.11-0.39,2.26-1.33,2.85
	l-0.08,0.04c-0.13,0.04-0.27,0.06-0.41,0.06c-0.4,0-0.82-0.16-1.15-0.44c-0.34-0.29-0.55-0.59-0.56-1.07
	c-0.48-5.46,1.38-10.37,5.2-13.85c2.48-2.03,4.48-4.59,6.41-7.07c0.94-1.21,1.91-2.46,2.92-3.61c0.77-0.77,2.02-0.11,4.08,2.13
	c0.87,0.95,3.56,5.53,4.79,8.55C599.64,468.09,599.04,469.11,599.04,469.11z M644.19,405.69c-1.03,0.98-2.11,1.97-3.2,2.96
	c-3.83,3.49-7.78,7.1-10.39,11.18c-1.23,1.67-2.14,3.6-3.02,5.46c-0.1,0.19-0.31,0.62-0.74,0.62c-0.2,0-0.39-0.09-0.58-0.28
	c-0.74-0.74-0.13-5.88,0.83-8.45c2.11-5.71,6.91-11.67,13.18-16.37c0.66-0.42,1.51-0.66,2.31-0.66c1.19,0,2.08,0.54,2.46,1.48
	C645.82,402.89,645.53,404.35,644.19,405.69z"/>
</svg>
